<?xml version="1.0" encoding="UTF-8" standalone="no"?>
<!-- Created with Inkscape (http://www.inkscape.org/) -->

<svg
   xmlns:dc="http://purl.org/dc/elements/1.1/"
   xmlns:cc="http://creativecommons.org/ns#"
   xmlns:rdf="http://www.w3.org/1999/02/22-rdf-syntax-ns#"
   xmlns:svg="http://www.w3.org/2000/svg"
   xmlns="http://www.w3.org/2000/svg"
   xmlns:sodipodi="http://sodipodi.sourceforge.net/DTD/sodipodi-0.dtd"
   xmlns:inkscape="http://www.inkscape.org/namespaces/inkscape"
   width="32px"
   height="32px"
   viewBox="0 0 32 32"
   version="1.1"
   id="SVGRoot"
   inkscape:version="0.92.4 (f8dce91, 2019-08-02)"
   sodipodi:docname="border-colorsvg.svg">
  <defs
     id="defs10" />
  <sodipodi:namedview
     id="base"
     pagecolor="#ffffff"
     bordercolor="#666666"
     borderopacity="1.0"
     inkscape:pageopacity="0.0"
     inkscape:pageshadow="2"
     inkscape:zoom="8"
     inkscape:cx="39.431463"
     inkscape:cy="-4.1828971"
     inkscape:document-units="px"
     inkscape:current-layer="layer1"
     showgrid="false"
     inkscape:window-width="1850"
     inkscape:window-height="1016"
     inkscape:window-x="3910"
     inkscape:window-y="27"
     inkscape:window-maximized="1"
     inkscape:grid-bbox="true" />
  <metadata
     id="metadata13">
    <rdf:RDF>
      <cc:Work
         rdf:about="">
        <dc:format>image/svg+xml</dc:format>
        <dc:type
           rdf:resource="http://purl.org/dc/dcmitype/StillImage" />
        <dc:title></dc:title>
      </cc:Work>
    </rdf:RDF>
  </metadata>
  <g
     inkscape:label="Ebene 1"
     inkscape:groupmode="layer"
     id="layer1">
    <rect
       id="rect23"
       width="26.633154"
       height="27.048147"
       x="2.6133404"
       y="2.637538"
       style="fill:none;stroke:#dedede;stroke-width:1.82944262;stroke-miterlimit:4;stroke-dasharray:none;stroke-dashoffset:0;stroke-opacity:1"
       ry="0" />
    <path
       style="fill:none;stroke:#000000;stroke-width:1.95312274;stroke-linecap:butt;stroke-linejoin:miter;stroke-miterlimit:4;stroke-dasharray:none;stroke-dashoffset:0;stroke-opacity:1"
       d="m 29.313919,1.756129 -0.01012,28.873167"
       id="path2288-6"
       inkscape:connector-curvature="0" />
    <path
       style="fill:none;stroke:#000000;stroke-width:1.95312274;stroke-linecap:butt;stroke-linejoin:miter;stroke-miterlimit:4;stroke-dasharray:none;stroke-dashoffset:0;stroke-opacity:1"
       d="M 2.68381,1.7249166 2.67369,30.598083"
       id="path2288-6-7"
       inkscape:connector-curvature="0" />
    <path
       style="fill:none;stroke:#000000;stroke-width:1.94410801;stroke-linecap:butt;stroke-linejoin:miter;stroke-miterlimit:4;stroke-dasharray:none;stroke-dashoffset:0;stroke-opacity:1"
       d="M 30.287553,2.704429 1.7086152,2.694301"
       id="path2288-6-3"
       inkscape:connector-curvature="0" />
    <path
       style="fill:none;stroke:#000000;stroke-width:1.94410801;stroke-linecap:butt;stroke-linejoin:miter;stroke-miterlimit:4;stroke-dasharray:none;stroke-dashoffset:0;stroke-opacity:1"
       d="M 30.280773,29.662666 1.7018356,29.652538"
       id="path2288-6-3-5"
       inkscape:connector-curvature="0" />
    <g
       id="g7719"
       transform="matrix(0.03383287,0,0,0.03536455,13.766579,6.123248)">
      <g
         id="g7663">
	<path
   id="path7661"
   d="M 283.897,92.846 C 247.315,43.501 210.209,3.579 209.836,3.182 207.944,1.153 205.296,0 202.523,0 c -2.774,0 -5.423,1.152 -7.314,3.182 -0.371,0.397 -37.478,40.319 -74.06,89.664 -49.971,67.403 -75.308,119.726 -75.308,155.513 0,86.396 70.287,156.688 156.682,156.688 86.396,0 156.683,-70.29 156.683,-156.688 0,-35.787 -25.338,-88.109 -75.309,-155.513 z m -65.726,261.496 c -8.213,1.941 -16.68,2.926 -25.162,2.926 -60.294,0 -109.347,-49.055 -109.347,-109.35 0,-8.312 2.559,-23.373 14.75,-47.914 1.225,-2.467 4.046,-3.691 6.687,-2.908 2.639,0.785 4.33,3.357 4.007,6.091 -0.28,2.361 -0.421,4.584 -0.421,6.607 0,64.629 45.966,120.77 109.298,133.484 2.607,0.525 4.5,2.795 4.545,5.455 0.047,2.663 -1.767,4.996 -4.357,5.609 z"
   inkscape:connector-curvature="0" />

</g>
      <g
         id="g7665">
</g>
      <g
         id="g7667">
</g>
      <g
         id="g7669">
</g>
      <g
         id="g7671">
</g>
      <g
         id="g7673">
</g>
      <g
         id="g7675">
</g>
      <g
         id="g7677">
</g>
      <g
         id="g7679">
</g>
      <g
         id="g7681">
</g>
      <g
         id="g7683">
</g>
      <g
         id="g7685">
</g>
      <g
         id="g7687">
</g>
      <g
         id="g7689">
</g>
      <g
         id="g7691">
</g>
      <g
         id="g7693">
</g>
    </g>
  </g>
</svg>
