<?xml version="1.0" encoding="UTF-8" standalone="no"?>
<svg
   width="16"
   height="16"
   fill="currentColor"
   class="bi bi-123"
   viewBox="0 0 16 16"
   version="1.1"
   id="svg4"
   sodipodi:docname="number.svg"
   inkscape:version="1.2.2 (b0a8486541, 2022-12-01)"
   xmlns:inkscape="http://www.inkscape.org/namespaces/inkscape"
   xmlns:sodipodi="http://sodipodi.sourceforge.net/DTD/sodipodi-0.dtd"
   xmlns="http://www.w3.org/2000/svg"
   xmlns:svg="http://www.w3.org/2000/svg">
  <defs
     id="defs8" />
  <sodipodi:namedview
     id="namedview6"
     pagecolor="#ffffff"
     bordercolor="#666666"
     borderopacity="1.0"
     inkscape:showpageshadow="2"
     inkscape:pageopacity="0.0"
     inkscape:pagecheckerboard="0"
     inkscape:deskcolor="#d1d1d1"
     showgrid="false"
     inkscape:zoom="46.4375"
     inkscape:cx="8.0215343"
     inkscape:cy="8.0215343"
     inkscape:window-width="1920"
     inkscape:window-height="1008"
     inkscape:window-x="1920"
     inkscape:window-y="0"
     inkscape:window-maximized="1"
     inkscape:current-layer="g1085" />
  <g
     id="g1085"
     transform="matrix(1.4508697,0,0,1.4508697,-2.9668942,-1.014468)">
    <g
       id="g307"
       transform="translate(0.08014743,0.03116853)">
      <path
         d="m 6.2477913,6.4028397 v 0.03618 H 5.5909075 v -0.03308 c 0,-0.626908 0.4542886,-1.2414121 1.3628659,-1.2414121 0.8176161,0 1.3504621,0.4904661 1.3504621,1.1447661 0,0.517858 -0.3100947,0.861546 -0.665153,1.255883 l -0.049615,0.0553 -1.0202114,1.1473497 v 0.0398 h 1.8078517 v 0.572124 H 5.6151982 V 8.9497524 L 7.1501666,7.2478507 c 0.2243018,-0.245492 0.4666925,-0.520959 0.4666925,-0.881186 0,-0.384517 -0.2878712,-0.638795 -0.6785905,-0.638795 -0.4356829,0 -0.6904773,0.317847 -0.6904773,0.674973"
         id="path416"
         sodipodi:nodetypes="cccssscccccccccssc"
         style="stroke-width:0.516824" />
      <path
         d="M 4.8473989,2.9842083 V 7.1151291 H 4.1697586 V 3.6742446 H 4.1361864 L 3.1889361,4.3549838 V 3.6985197 L 4.1697586,2.9842083 Z"
         id="path291"
         sodipodi:nodetypes="ccccccccc"
         style="stroke-width:0.516494" />
      <path
         d="M 10.280761,6.1929291 H 9.8253337 V 5.6375048 h 0.4341843 c 0.404133,0 0.698426,-0.2704585 0.695317,-0.6409142 0,-0.3673469 -0.291702,-0.6191531 -0.698425,-0.6191531 -0.4093153,0 -0.6797737,0.2580237 -0.698426,0.5466163 H 8.9113706 c 0.018652,-0.5891021 0.4922137,-1.0958232 1.3600644,-1.098932 0.825883,-0.00622 1.351256,0.458536 1.366282,1.068363 0.01192,0.5891021 -0.458536,0.9201807 -0.767854,0.9714746 v 0.036268 c 0.364238,0.036268 0.885985,0.331597 0.89842,0.9932357 0.01243,0.7559364 -0.661639,1.2414149 -1.518091,1.2414149 -0.8833941,0 -1.4025501,-0.5010221 -1.4269018,-1.1108489 h 0.6346967 c 0.030569,0.3093174 0.3523213,0.5492068 0.7984231,0.552316 0.50413,0.00314 0.828991,-0.2917013 0.822774,-0.7015341 -0.0031,-0.4036152 -0.321753,-0.6828822 -0.798423,-0.6828822"
         id="path841"
         style="stroke-width:0.51812" />
    </g>
  </g>
</svg>
